<mxfile host="app.diagrams.net" agent="Mozilla/5.0 (Windows NT 10.0; Win64; x64) AppleWebKit/537.36 (KHTML, like Gecko) Chrome/128.0.0.0 Safari/537.36" version="24.7.12">
  <diagram id="aS9pjdUC0Do7hMSleVWt" name="第 1 页">
    <mxGraphModel dx="2358" dy="1248" grid="0" gridSize="10" guides="1" tooltips="1" connect="1" arrows="1" fold="1" page="1" pageScale="1" pageWidth="3300" pageHeight="2339" background="none" math="0" shadow="0">
      <root>
        <mxCell id="0" />
        <mxCell id="1" parent="0" />
        <mxCell id="PUpS1tQJ0lUEvFyYIJLh-29" value="" style="rounded=1;whiteSpace=wrap;html=1;" vertex="1" parent="1">
          <mxGeometry x="685" y="1362" width="860" height="131" as="geometry" />
        </mxCell>
        <mxCell id="RPVrYkw0YZt2wrHHsJ2X-13" value="192.168.1.100" style="swimlane;whiteSpace=wrap;html=1;" parent="1" vertex="1">
          <mxGeometry x="216" y="490" width="874" height="1023" as="geometry" />
        </mxCell>
        <mxCell id="650IIXOIDKGoNLVYWwJo-11" value="" style="rounded=1;whiteSpace=wrap;html=1;" parent="RPVrYkw0YZt2wrHHsJ2X-13" vertex="1">
          <mxGeometry x="26" y="286" width="759" height="538" as="geometry" />
        </mxCell>
        <mxCell id="650IIXOIDKGoNLVYWwJo-13" style="edgeStyle=orthogonalEdgeStyle;rounded=0;orthogonalLoop=1;jettySize=auto;html=1;exitX=0.5;exitY=1;exitDx=0;exitDy=0;" parent="RPVrYkw0YZt2wrHHsJ2X-13" source="RPVrYkw0YZt2wrHHsJ2X-15" target="650IIXOIDKGoNLVYWwJo-10" edge="1">
          <mxGeometry relative="1" as="geometry" />
        </mxCell>
        <mxCell id="RPVrYkw0YZt2wrHHsJ2X-15" value="&lt;font style=&quot;font-size: 18px;&quot;&gt;Gateway&lt;/font&gt;&lt;br&gt;（网关）" style="rounded=1;whiteSpace=wrap;html=1;fillColor=#ffcd28;strokeColor=#d79b00;gradientColor=#ffa500;" parent="RPVrYkw0YZt2wrHHsJ2X-13" vertex="1">
          <mxGeometry x="328.5" y="320" width="120" height="60" as="geometry" />
        </mxCell>
        <mxCell id="650IIXOIDKGoNLVYWwJo-5" style="edgeStyle=orthogonalEdgeStyle;rounded=0;orthogonalLoop=1;jettySize=auto;html=1;exitX=0.25;exitY=1;exitDx=0;exitDy=0;entryX=0.5;entryY=0;entryDx=0;entryDy=0;" parent="RPVrYkw0YZt2wrHHsJ2X-13" source="RPVrYkw0YZt2wrHHsJ2X-46" target="RPVrYkw0YZt2wrHHsJ2X-15" edge="1">
          <mxGeometry relative="1" as="geometry" />
        </mxCell>
        <mxCell id="650IIXOIDKGoNLVYWwJo-15" style="edgeStyle=orthogonalEdgeStyle;rounded=0;orthogonalLoop=1;jettySize=auto;html=1;exitX=0.75;exitY=1;exitDx=0;exitDy=0;entryX=0.5;entryY=0;entryDx=0;entryDy=0;" parent="RPVrYkw0YZt2wrHHsJ2X-13" source="RPVrYkw0YZt2wrHHsJ2X-46" target="650IIXOIDKGoNLVYWwJo-14" edge="1">
          <mxGeometry relative="1" as="geometry" />
        </mxCell>
        <mxCell id="RPVrYkw0YZt2wrHHsJ2X-46" value="&lt;font style=&quot;font-size: 18px;&quot;&gt;Nginx&lt;/font&gt;" style="rounded=1;whiteSpace=wrap;html=1;fillColor=#FFFFFF;" parent="RPVrYkw0YZt2wrHHsJ2X-13" vertex="1">
          <mxGeometry x="476" y="80" width="120" height="60" as="geometry" />
        </mxCell>
        <mxCell id="650IIXOIDKGoNLVYWwJo-10" value="" style="rounded=1;whiteSpace=wrap;html=1;" parent="RPVrYkw0YZt2wrHHsJ2X-13" vertex="1">
          <mxGeometry x="71" y="418" width="635" height="361" as="geometry" />
        </mxCell>
        <mxCell id="RPVrYkw0YZt2wrHHsJ2X-16" value="&lt;font style=&quot;font-size: 18px;&quot;&gt;Auth&lt;/font&gt;&lt;br&gt;（登录认证服务）" style="rounded=1;whiteSpace=wrap;html=1;fillColor=#1ba1e2;strokeColor=#006EAF;fontColor=#ffffff;" parent="RPVrYkw0YZt2wrHHsJ2X-13" vertex="1">
          <mxGeometry x="172" y="464" width="120" height="60" as="geometry" />
        </mxCell>
        <mxCell id="RPVrYkw0YZt2wrHHsJ2X-17" value="&lt;span style=&quot;font-size: 18px;&quot;&gt;Exam&lt;/span&gt;&lt;br&gt;（考试服务）" style="rounded=1;whiteSpace=wrap;html=1;fillColor=#1ba1e2;strokeColor=#006EAF;fontColor=#ffffff;" parent="RPVrYkw0YZt2wrHHsJ2X-13" vertex="1">
          <mxGeometry x="330.5" y="464" width="120" height="60" as="geometry" />
        </mxCell>
        <mxCell id="RPVrYkw0YZt2wrHHsJ2X-18" value="&lt;span style=&quot;font-size: 18px;&quot;&gt;Tenant&lt;/span&gt;&lt;br&gt;（租户服务）" style="rounded=1;whiteSpace=wrap;html=1;fillColor=#1ba1e2;strokeColor=#006EAF;fontColor=#ffffff;" parent="RPVrYkw0YZt2wrHHsJ2X-13" vertex="1">
          <mxGeometry x="513" y="576" width="120" height="60" as="geometry" />
        </mxCell>
        <mxCell id="650IIXOIDKGoNLVYWwJo-6" value="&lt;span style=&quot;font-size: 18px;&quot;&gt;kc&lt;/span&gt;&lt;br&gt;（课程服务）" style="rounded=1;whiteSpace=wrap;html=1;fillColor=#1ba1e2;strokeColor=#006EAF;fontColor=#ffffff;" parent="RPVrYkw0YZt2wrHHsJ2X-13" vertex="1">
          <mxGeometry x="172" y="576" width="120" height="60" as="geometry" />
        </mxCell>
        <mxCell id="650IIXOIDKGoNLVYWwJo-7" value="&lt;span style=&quot;font-size: 18px;&quot;&gt;System&lt;/span&gt;&lt;div&gt;（系统设置服务）&lt;/div&gt;" style="rounded=1;whiteSpace=wrap;html=1;fillColor=#1ba1e2;strokeColor=#006EAF;fontColor=#ffffff;" parent="RPVrYkw0YZt2wrHHsJ2X-13" vertex="1">
          <mxGeometry x="328.5" y="576" width="120" height="60" as="geometry" />
        </mxCell>
        <mxCell id="650IIXOIDKGoNLVYWwJo-8" value="&lt;span style=&quot;font-size: 18px;&quot;&gt;File&lt;/span&gt;&lt;br&gt;&lt;div&gt;（文件服务）&lt;/div&gt;" style="rounded=1;whiteSpace=wrap;html=1;fillColor=#1ba1e2;strokeColor=#006EAF;fontColor=#ffffff;" parent="RPVrYkw0YZt2wrHHsJ2X-13" vertex="1">
          <mxGeometry x="513" y="464" width="120" height="60" as="geometry" />
        </mxCell>
        <mxCell id="650IIXOIDKGoNLVYWwJo-9" value="&lt;span style=&quot;font-size: 18px;&quot;&gt;Job&lt;/span&gt;&lt;br&gt;&lt;div&gt;（定时器&lt;span style=&quot;background-color: initial;&quot;&gt;服务）&lt;/span&gt;&lt;/div&gt;" style="rounded=1;whiteSpace=wrap;html=1;fillColor=#1ba1e2;strokeColor=#006EAF;fontColor=#ffffff;" parent="RPVrYkw0YZt2wrHHsJ2X-13" vertex="1">
          <mxGeometry x="172" y="688" width="120" height="60" as="geometry" />
        </mxCell>
        <mxCell id="650IIXOIDKGoNLVYWwJo-14" value="&lt;span style=&quot;font-size: 18px;&quot;&gt;html&lt;br&gt;(&lt;/span&gt;&lt;span style=&quot;font-size: 18px;&quot;&gt;前端资源&lt;/span&gt;&lt;span style=&quot;font-size: 18px;&quot;&gt;)&lt;/span&gt;" style="rounded=1;whiteSpace=wrap;html=1;fillColor=#d5e8d4;strokeColor=#82b366;gradientColor=#97d077;" parent="RPVrYkw0YZt2wrHHsJ2X-13" vertex="1">
          <mxGeometry x="579" y="202" width="120" height="60" as="geometry" />
        </mxCell>
        <mxCell id="RPVrYkw0YZt2wrHHsJ2X-14" value="&lt;font style=&quot;font-size: 18px;&quot;&gt;Nacos&lt;/font&gt;&lt;br&gt;（注册&amp;amp;配置中心）" style="rounded=1;whiteSpace=wrap;html=1;fillColor=#B3FF66;" parent="RPVrYkw0YZt2wrHHsJ2X-13" vertex="1">
          <mxGeometry x="611" y="913" width="120" height="60" as="geometry" />
        </mxCell>
        <mxCell id="RPVrYkw0YZt2wrHHsJ2X-51" value="&lt;span style=&quot;font-size: 18px;&quot;&gt;web客户端&lt;/span&gt;" style="rounded=1;whiteSpace=wrap;html=1;fillColor=#d5e8d4;gradientColor=#97d077;strokeColor=#82b366;" parent="1" vertex="1">
          <mxGeometry x="1068" y="66" width="120" height="60" as="geometry" />
        </mxCell>
        <mxCell id="PUpS1tQJ0lUEvFyYIJLh-1" value="192.168.1.100" style="swimlane;whiteSpace=wrap;html=1;" vertex="1" parent="1">
          <mxGeometry x="1146" y="490" width="1001" height="1023" as="geometry" />
        </mxCell>
        <mxCell id="PUpS1tQJ0lUEvFyYIJLh-3" value="" style="rounded=1;whiteSpace=wrap;html=1;" vertex="1" parent="PUpS1tQJ0lUEvFyYIJLh-1">
          <mxGeometry x="201" y="289" width="759" height="538" as="geometry" />
        </mxCell>
        <mxCell id="PUpS1tQJ0lUEvFyYIJLh-4" style="edgeStyle=orthogonalEdgeStyle;rounded=0;orthogonalLoop=1;jettySize=auto;html=1;exitX=0.5;exitY=1;exitDx=0;exitDy=0;" edge="1" parent="PUpS1tQJ0lUEvFyYIJLh-1" source="PUpS1tQJ0lUEvFyYIJLh-5" target="PUpS1tQJ0lUEvFyYIJLh-9">
          <mxGeometry relative="1" as="geometry" />
        </mxCell>
        <mxCell id="PUpS1tQJ0lUEvFyYIJLh-5" value="&lt;font style=&quot;font-size: 18px;&quot;&gt;Gateway&lt;/font&gt;&lt;br&gt;（网关）" style="rounded=1;whiteSpace=wrap;html=1;fillColor=#ffcd28;strokeColor=#d79b00;gradientColor=#ffa500;" vertex="1" parent="PUpS1tQJ0lUEvFyYIJLh-1">
          <mxGeometry x="503.5" y="323" width="120" height="60" as="geometry" />
        </mxCell>
        <mxCell id="PUpS1tQJ0lUEvFyYIJLh-6" style="edgeStyle=orthogonalEdgeStyle;rounded=0;orthogonalLoop=1;jettySize=auto;html=1;entryX=0.5;entryY=0;entryDx=0;entryDy=0;exitX=0.75;exitY=1;exitDx=0;exitDy=0;" edge="1" parent="PUpS1tQJ0lUEvFyYIJLh-1" source="PUpS1tQJ0lUEvFyYIJLh-8" target="PUpS1tQJ0lUEvFyYIJLh-5">
          <mxGeometry relative="1" as="geometry">
            <mxPoint x="627" y="179" as="sourcePoint" />
          </mxGeometry>
        </mxCell>
        <mxCell id="PUpS1tQJ0lUEvFyYIJLh-7" style="edgeStyle=orthogonalEdgeStyle;rounded=0;orthogonalLoop=1;jettySize=auto;html=1;exitX=0.25;exitY=1;exitDx=0;exitDy=0;entryX=0.5;entryY=0;entryDx=0;entryDy=0;" edge="1" parent="PUpS1tQJ0lUEvFyYIJLh-1" source="PUpS1tQJ0lUEvFyYIJLh-8" target="PUpS1tQJ0lUEvFyYIJLh-17">
          <mxGeometry relative="1" as="geometry" />
        </mxCell>
        <mxCell id="PUpS1tQJ0lUEvFyYIJLh-8" value="&lt;font style=&quot;font-size: 18px;&quot;&gt;Nginx&lt;/font&gt;" style="rounded=1;whiteSpace=wrap;html=1;fillColor=#FFFFFF;" vertex="1" parent="PUpS1tQJ0lUEvFyYIJLh-1">
          <mxGeometry x="356" y="64" width="120" height="60" as="geometry" />
        </mxCell>
        <mxCell id="PUpS1tQJ0lUEvFyYIJLh-9" value="" style="rounded=1;whiteSpace=wrap;html=1;" vertex="1" parent="PUpS1tQJ0lUEvFyYIJLh-1">
          <mxGeometry x="246" y="421" width="635" height="361" as="geometry" />
        </mxCell>
        <mxCell id="PUpS1tQJ0lUEvFyYIJLh-10" value="&lt;font style=&quot;font-size: 18px;&quot;&gt;Auth&lt;/font&gt;&lt;br&gt;（登录认证服务）" style="rounded=1;whiteSpace=wrap;html=1;fillColor=#1ba1e2;strokeColor=#006EAF;fontColor=#ffffff;" vertex="1" parent="PUpS1tQJ0lUEvFyYIJLh-1">
          <mxGeometry x="347" y="467" width="120" height="60" as="geometry" />
        </mxCell>
        <mxCell id="PUpS1tQJ0lUEvFyYIJLh-11" value="&lt;span style=&quot;font-size: 18px;&quot;&gt;Exam&lt;/span&gt;&lt;br&gt;（考试服务）" style="rounded=1;whiteSpace=wrap;html=1;fillColor=#1ba1e2;strokeColor=#006EAF;fontColor=#ffffff;" vertex="1" parent="PUpS1tQJ0lUEvFyYIJLh-1">
          <mxGeometry x="505.5" y="467" width="120" height="60" as="geometry" />
        </mxCell>
        <mxCell id="PUpS1tQJ0lUEvFyYIJLh-12" value="&lt;span style=&quot;font-size: 18px;&quot;&gt;Tenant&lt;/span&gt;&lt;br&gt;（租户服务）" style="rounded=1;whiteSpace=wrap;html=1;fillColor=#1ba1e2;strokeColor=#006EAF;fontColor=#ffffff;" vertex="1" parent="PUpS1tQJ0lUEvFyYIJLh-1">
          <mxGeometry x="688" y="579" width="120" height="60" as="geometry" />
        </mxCell>
        <mxCell id="PUpS1tQJ0lUEvFyYIJLh-13" value="&lt;span style=&quot;font-size: 18px;&quot;&gt;kc&lt;/span&gt;&lt;br&gt;（课程服务）" style="rounded=1;whiteSpace=wrap;html=1;fillColor=#1ba1e2;strokeColor=#006EAF;fontColor=#ffffff;" vertex="1" parent="PUpS1tQJ0lUEvFyYIJLh-1">
          <mxGeometry x="347" y="579" width="120" height="60" as="geometry" />
        </mxCell>
        <mxCell id="PUpS1tQJ0lUEvFyYIJLh-14" value="&lt;span style=&quot;font-size: 18px;&quot;&gt;System&lt;/span&gt;&lt;div&gt;（系统设置服务）&lt;/div&gt;" style="rounded=1;whiteSpace=wrap;html=1;fillColor=#1ba1e2;strokeColor=#006EAF;fontColor=#ffffff;" vertex="1" parent="PUpS1tQJ0lUEvFyYIJLh-1">
          <mxGeometry x="503.5" y="579" width="120" height="60" as="geometry" />
        </mxCell>
        <mxCell id="PUpS1tQJ0lUEvFyYIJLh-15" value="&lt;span style=&quot;font-size: 18px;&quot;&gt;File&lt;/span&gt;&lt;br&gt;&lt;div&gt;（文件服务）&lt;/div&gt;" style="rounded=1;whiteSpace=wrap;html=1;fillColor=#1ba1e2;strokeColor=#006EAF;fontColor=#ffffff;" vertex="1" parent="PUpS1tQJ0lUEvFyYIJLh-1">
          <mxGeometry x="688" y="467" width="120" height="60" as="geometry" />
        </mxCell>
        <mxCell id="PUpS1tQJ0lUEvFyYIJLh-16" value="&lt;span style=&quot;font-size: 18px;&quot;&gt;Job&lt;/span&gt;&lt;br&gt;&lt;div&gt;（定时器&lt;span style=&quot;background-color: initial;&quot;&gt;服务）&lt;/span&gt;&lt;/div&gt;" style="rounded=1;whiteSpace=wrap;html=1;fillColor=#1ba1e2;strokeColor=#006EAF;fontColor=#ffffff;" vertex="1" parent="PUpS1tQJ0lUEvFyYIJLh-1">
          <mxGeometry x="347" y="691" width="120" height="60" as="geometry" />
        </mxCell>
        <mxCell id="PUpS1tQJ0lUEvFyYIJLh-17" value="&lt;span style=&quot;font-size: 18px;&quot;&gt;html&lt;br&gt;(&lt;/span&gt;&lt;span style=&quot;font-size: 18px;&quot;&gt;前端资源&lt;/span&gt;&lt;span style=&quot;font-size: 18px;&quot;&gt;)&lt;/span&gt;" style="rounded=1;whiteSpace=wrap;html=1;fillColor=#d5e8d4;strokeColor=#82b366;gradientColor=#97d077;" vertex="1" parent="PUpS1tQJ0lUEvFyYIJLh-1">
          <mxGeometry x="197" y="196" width="120" height="60" as="geometry" />
        </mxCell>
        <mxCell id="PUpS1tQJ0lUEvFyYIJLh-18" value="&lt;font style=&quot;font-size: 18px;&quot;&gt;Nacos&lt;/font&gt;&lt;br&gt;（注册&amp;amp;配置中心）" style="rounded=1;whiteSpace=wrap;html=1;fillColor=#B3FF66;" vertex="1" parent="PUpS1tQJ0lUEvFyYIJLh-1">
          <mxGeometry x="108" y="912" width="120" height="60" as="geometry" />
        </mxCell>
        <mxCell id="PUpS1tQJ0lUEvFyYIJLh-19" value="&lt;font style=&quot;font-size: 18px;&quot;&gt;redis&lt;/font&gt;" style="shape=cylinder3;whiteSpace=wrap;html=1;boundedLbl=1;backgroundOutline=1;size=15;fillColor=#dae8fc;gradientColor=#7ea6e0;strokeColor=#6c8ebf;" vertex="1" parent="PUpS1tQJ0lUEvFyYIJLh-1">
          <mxGeometry x="18" y="575" width="108" height="104.5" as="geometry" />
        </mxCell>
        <mxCell id="PUpS1tQJ0lUEvFyYIJLh-34" style="edgeStyle=orthogonalEdgeStyle;rounded=0;orthogonalLoop=1;jettySize=auto;html=1;exitX=0;exitY=0.5;exitDx=0;exitDy=0;entryX=1;entryY=0.5;entryDx=0;entryDy=0;entryPerimeter=0;" edge="1" parent="PUpS1tQJ0lUEvFyYIJLh-1" source="PUpS1tQJ0lUEvFyYIJLh-3" target="PUpS1tQJ0lUEvFyYIJLh-19">
          <mxGeometry relative="1" as="geometry" />
        </mxCell>
        <mxCell id="PUpS1tQJ0lUEvFyYIJLh-24" value="&lt;font style=&quot;font-size: 18px;&quot;&gt;mysql&lt;br&gt;(阿里云)&lt;/font&gt;" style="shape=cylinder3;whiteSpace=wrap;html=1;boundedLbl=1;backgroundOutline=1;size=15;fillColor=#dae8fc;gradientColor=#7ea6e0;strokeColor=#6c8ebf;" vertex="1" parent="1">
          <mxGeometry x="2506" y="967" width="133" height="117" as="geometry" />
        </mxCell>
        <mxCell id="PUpS1tQJ0lUEvFyYIJLh-26" value="&lt;span style=&quot;font-size: 18px;&quot;&gt;腾讯云&lt;br&gt;（文件&amp;amp;视频&lt;/span&gt;&lt;span style=&quot;font-size: 18px; background-color: initial;&quot;&gt;）&lt;/span&gt;" style="shape=cylinder3;whiteSpace=wrap;html=1;boundedLbl=1;backgroundOutline=1;size=15;fillColor=#dae8fc;gradientColor=#7ea6e0;strokeColor=#6c8ebf;" vertex="1" parent="1">
          <mxGeometry x="2469" y="645" width="133" height="117" as="geometry" />
        </mxCell>
        <mxCell id="PUpS1tQJ0lUEvFyYIJLh-32" style="edgeStyle=orthogonalEdgeStyle;rounded=0;orthogonalLoop=1;jettySize=auto;html=1;exitX=0.75;exitY=1;exitDx=0;exitDy=0;entryX=0.25;entryY=0;entryDx=0;entryDy=0;" edge="1" parent="1" source="650IIXOIDKGoNLVYWwJo-11" target="PUpS1tQJ0lUEvFyYIJLh-29">
          <mxGeometry relative="1" as="geometry" />
        </mxCell>
        <mxCell id="PUpS1tQJ0lUEvFyYIJLh-33" style="edgeStyle=orthogonalEdgeStyle;rounded=0;orthogonalLoop=1;jettySize=auto;html=1;exitX=0.25;exitY=1;exitDx=0;exitDy=0;entryX=0.75;entryY=0;entryDx=0;entryDy=0;" edge="1" parent="1" source="PUpS1tQJ0lUEvFyYIJLh-3" target="PUpS1tQJ0lUEvFyYIJLh-29">
          <mxGeometry relative="1" as="geometry" />
        </mxCell>
        <mxCell id="PUpS1tQJ0lUEvFyYIJLh-35" style="edgeStyle=orthogonalEdgeStyle;rounded=0;orthogonalLoop=1;jettySize=auto;html=1;exitX=1;exitY=0.5;exitDx=0;exitDy=0;entryX=0;entryY=0.5;entryDx=0;entryDy=0;entryPerimeter=0;" edge="1" parent="1" source="650IIXOIDKGoNLVYWwJo-11" target="PUpS1tQJ0lUEvFyYIJLh-19">
          <mxGeometry relative="1" as="geometry" />
        </mxCell>
        <mxCell id="PUpS1tQJ0lUEvFyYIJLh-36" value="阿里云SLB" style="rounded=1;whiteSpace=wrap;html=1;fontSize=18;" vertex="1" parent="1">
          <mxGeometry x="1055" y="237" width="120" height="60" as="geometry" />
        </mxCell>
      </root>
    </mxGraphModel>
  </diagram>
</mxfile>
